<?xml version="1.0" encoding="utf-8"?>
<!-- Generator: Adobe Illustrator 24.1.0, SVG Export Plug-In . SVG Version: 6.00 Build 0)  -->
<svg version="1.1" id="Layer_1" xmlns="http://www.w3.org/2000/svg" xmlns:xlink="http://www.w3.org/1999/xlink" x="0px" y="0px"
	 viewBox="0 0 243 165" style="enable-background:new 0 0 243 165;" xml:space="preserve">
<style type="text/css">
	.st0{fill:#FFFFFF;}
</style>
<g>
	<g id="HELLY_HANSEN">
		<path class="st0" d="M190.1,134.5h4.9l6.4,11.3l0,0v-11.3h4.5v18.3H201l-6.4-11.4h-0.1v11.4H190v-18.3H190.1z"/>
		<path class="st0" d="M28.6,134.5h14.6v3.8h-9.8v3.2h9v3.7h-9v3.5h10.1v4.1H28.6V134.5z"/>
		<path class="st0" d="M159.2,146.6c0.1,2.2,1.4,2.8,3.5,2.8c1.4,0,2.9-0.5,2.9-1.9c0-1.6-2.6-1.9-5.3-2.7c-2.6-0.7-5.4-1.9-5.4-5.3
			c0-4,4-5.6,7.5-5.6c3.6,0,7.3,1.8,7.3,5.9H165c0.1-1.7-1.5-2.2-2.9-2.2c-1,0-2.3,0.4-2.3,1.6c0,1.4,2.6,1.7,5.3,2.4
			c2.6,0.7,5.3,2,5.3,5.3c0,4.6-3.9,6.1-8,6.1c-4.2,0-7.9-1.8-8-6.5L159.2,146.6L159.2,146.6z"/>
		<path class="st0" d="M136.4,134.5h4.9l6.4,11.3h0.1v-11.3h4.5v18.3h-4.9l-6.4-11.4h-0.1v11.4h-4.5V134.5z"/>
		<path class="st0" d="M123.4,134.5h4.8l6.8,18.3h-5l-1.1-3.3h-6.4l-1.2,3.3h-4.9L123.4,134.5z M123.7,146h4.2l-2-6.4h-0.1
			L123.7,146z"/>
		<path class="st0" d="M99.4,134.5h4.8v6.7h6.3v-6.7h4.8v18.3h-4.8v-7.5h-6.3v7.5h-4.8V134.5z"/>
		<path class="st0" d="M83.5,146v6.8h-4.8V146L72,134.5h5.4l3.6,7.4l3.6-7.4H90L83.5,146z"/>
		<path class="st0" d="M46.2,134.5H51v14.2h8.5v4.1H46.2V134.5z"/>
		<path class="st0" d="M61.8,134.5h4.8v14.2h8.5v4.1H61.8V134.5z"/>
		<path class="st0" d="M172.6,134.5h14.6v3.8h-9.8v3.2h9v3.7h-9v3.5h10.1v4.1h-14.9L172.6,134.5L172.6,134.5z"/>
		<path class="st0" d="M9.6,134.5h4.8v6.7h6.3v-6.7h4.8v18.3h-4.8v-7.5h-6.3v7.5H9.6V134.5z"/>
	</g>
	<g id="HH_xAE_">
		<g>
			<path class="st0" d="M218.3,17.5c0-4.4,3.6-8,8.1-8c4.4,0,8,3.6,8,8s-3.6,8-8,8C221.9,25.6,218.3,22,218.3,17.5z M226.3,27.8
				c5.7,0,10.3-4.6,10.3-10.3S232,7.2,226.3,7.2c-5.7,0-10.3,4.6-10.3,10.3C216,23.2,220.6,27.8,226.3,27.8z"/>
			<path class="st0" d="M223.2,13h3.8c1.9,0,3,1.1,3,2.7c0,2-1.3,2.5-1.8,2.6l2,3.6h-2l-1.7-3.3h-1.6V22h-1.7L223.2,13L223.2,13z
				 M224.9,17.2h1.8c0.9,0,1.5-0.5,1.5-1.4c0-0.8-0.6-1.4-1.7-1.4h-1.6L224.9,17.2L224.9,17.2z"/>
		</g>
		<g>
			<polygon class="st0" points="124.3,17.5 137.7,17.5 137.7,54 171,54 171,17.5 205.8,17.5 205.8,121.8 170.9,121.8 170.9,86 
				137.6,86 137.6,121.8 104,121.8 			"/>
			<polygon class="st0" points="91.2,121.8 77.7,121.8 77.7,86 44.4,86 44.4,121.8 9.6,121.8 9.6,17.5 44.5,17.5 44.5,54 77.9,54 
				77.9,17.5 111.5,17.5 			"/>
		</g>
	</g>
</g>
</svg>
